<svg width="200" height="30" viewBox="0 0 200 30" fill="none" xmlns="http://www.w3.org/2000/svg">
<g clip-path="url(#clip0_7_42)">
<path d="M25.1062 6.58988C28.3414 11.0428 26.6556 18.4427 20.3586 23.0179C14.0614 27.5931 6.50195 26.9102 3.26669 22.4572C0.0314342 18.0043 1.71788 10.6038 8.0151 6.02858C14.3123 1.4536 21.871 2.13699 25.1062 6.58988Z" stroke="white" stroke-width="3"/>
<path d="M23.2551 6.35617C23.1031 7.25428 22.6426 8.49886 21.7517 10.0442C20.623 12.002 18.8415 14.3821 16.2626 17.0526C13.6994 19.7069 11.3829 21.5705 9.46155 22.771C7.94488 23.7186 6.71187 24.2273 5.81808 24.4127C5.97224 23.513 6.43754 22.263 7.33163 20.7142C8.46436 18.7521 10.246 16.372 12.8092 13.7177C15.3724 11.0634 17.6889 9.1998 19.6103 7.99928C21.1278 7.05112 22.3612 6.54136 23.2551 6.35617Z" stroke="white" stroke-width="1.2"/>
<path d="M37.432 20.368H42.616C42.868 23.032 44.632 23.932 46.144 23.932C48.088 23.932 49.816 22.6 49.816 20.584C49.816 17.848 48.052 17.344 44.74 16.084C42.688 15.292 38.404 14.032 38.404 8.416C38.404 4.168 41.716 0.819998 46.216 0.819998C49.312 0.819998 53.848 2.98 54.1 8.416H49.06C48.844 6.04 47.404 5.428 46.072 5.428C44.524 5.428 43.336 6.544 43.336 8.128C43.336 10.432 45.064 10.936 47.764 11.836C49.96 12.556 54.748 14.248 54.748 20.044C54.748 25.804 50.284 28.54 46.108 28.54C42.688 28.54 37.72 26.236 37.432 20.368ZM56.1711 14.752C56.1711 6.868 62.5431 0.819998 70.1031 0.819998C77.6631 0.819998 84.0351 6.868 84.0351 14.752C84.0351 22.384 77.7711 28.54 70.1031 28.54C62.4351 28.54 56.1711 22.384 56.1711 14.752ZM61.1031 14.716C61.1031 19.648 65.0271 23.932 70.1031 23.932C75.1791 23.932 79.1031 19.648 79.1031 14.716C79.1031 9.604 75.1071 5.428 70.1031 5.428C65.0991 5.428 61.1031 9.604 61.1031 14.716ZM93.1735 28V18.172L84.4255 1.36H89.8255L95.6215 13.6L101.454 1.36H106.89L98.1055 18.172V28H93.1735ZM120.62 28V5.968H115.688V1.36H130.52V5.968H125.552V28H120.62ZM132.065 28V1.36H146.393V5.968H136.997V12.484H145.997V17.092H136.997V23.392H146.393V28H132.065ZM169.56 20.584H175.284C173.196 25.48 168.084 28.54 162.972 28.54C155.268 28.54 149.076 22.096 149.076 14.572C149.076 7.228 155.16 0.819998 162.864 0.819998C167.292 0.819998 172.872 3.124 175.428 8.956H169.812C167.904 6.76 165.636 5.428 162.684 5.428C158.364 5.428 154.008 9.316 154.008 14.644C154.008 19.648 158.148 23.932 162.864 23.932C166.428 23.932 168.372 21.844 169.56 20.584ZM177.778 28V1.36H182.71V12.196H192.25V1.36H197.182V28H192.25V16.804H182.71V28H177.778Z" fill="white"/>
</g>
<defs>
<clipPath id="clip0_7_42">
<rect width="200" height="30" fill="white"/>
</clipPath>
</defs>
</svg>
